<?xml version="1.0" standalone="no"?>
<!DOCTYPE svg PUBLIC "-//W3C//DTD SVG 20010904//EN"
 "http://www.w3.org/TR/2001/REC-SVG-20010904/DTD/svg10.dtd">
<svg version="1.0" xmlns="http://www.w3.org/2000/svg"
 width="193.000000pt" height="70.000000pt" viewBox="0 0 193.000000 70.000000"
 preserveAspectRatio="xMidYMid meet">
<metadata>
Created by potrace 1.16, written by Peter Selinger 2001-2019
</metadata>
<g transform="translate(0.000000,70.000000) scale(0.100000,-0.100000)"
fill="#000000" stroke="none">
<path d="M866 662 c-7 -12 -116 -449 -116 -467 0 -10 10 -15 30 -15 22 0 31 5
35 23 82 348 104 450 100 458 -8 11 -42 12 -49 1z" fill="#B3093F"/>
<path d="M376 609 c-45 -7 -62 -26 -77 -84 -15 -55 -7 -192 14 -232 22 -42 74
-58 152 -48 l57 7 -7 76 c-4 42 -9 80 -12 85 -2 4 -15 7 -29 7 -23 0 -24 -3
-24 -60 0 -59 0 -60 -28 -60 -46 0 -52 15 -52 123 0 126 7 141 65 132 37 -5
45 -3 54 13 19 35 -34 54 -113 41z" fill="white"/>
<path d="M557 604 c-4 -4 -7 -85 -7 -180 0 -183 0 -184 51 -184 17 0 19 8 19
85 l0 84 58 3 c53 3 57 5 57 28 0 23 -4 25 -57 28 l-58 3 0 39 0 39 58 3 c53
3 57 5 57 28 0 24 -2 25 -85 28 -47 1 -89 0 -93 -4z" fill="white"/>
<path d="M177 568 c-68 -94 -87 -123 -87 -136 0 -13 72 -113 106 -146 18 -18
24 -19 44 -6 12 7 6 21 -33 77 -26 38 -47 72 -47 76 0 4 18 36 40 71 44 70 47
81 24 90 -22 8 -21 9 -47 -26z" fill="#B3093F"/>
<path d="M963 589 c-8 -8 2 -31 34 -84 l45 -73 -47 -70 c-45 -68 -50 -92 -20
-92 14 0 104 101 125 140 13 24 6 38 -57 128 -44 62 -59 72 -80 51z" fill="#B3093F"/>
</g>
</svg>
